<?xml version="1.0" encoding="utf-8"?>
<!-- Generator: Adobe Illustrator 17.1.0, SVG Export Plug-In . SVG Version: 6.00 Build 0)  -->
<!DOCTYPE svg PUBLIC "-//W3C//DTD SVG 1.1//EN" "http://www.w3.org/Graphics/SVG/1.1/DTD/svg11.dtd">
<svg version="1.1" id="Layer_1" xmlns="http://www.w3.org/2000/svg" xmlns:xlink="http://www.w3.org/1999/xlink" x="0px" y="0px"
	 viewBox="6 330 602.1 141.4" enable-background="new 6 330 602.1 141.4" xml:space="preserve">
<g>
	<path fill="#6C9C6D" d="M28.8,339c24.4-2.6,152.5,0.2,173.3-1.8c52.6-4.9,151.5-1.1,174.4,0.2c52.1,2.9,47.6,0.5,87.4,1
		s118.3,0.5,118.7,0.5c33.7-6.3,20.3,47.1,21,63.5c0.8,18,9.9,57.8-18.3,61.1c-66.7,7.9-134.7,5.5-201.8,5.6
		c-74.8,0-149.3,0.3-224.1-0.6c-35.5-0.4-70.6-2.8-106-4c-9.9-0.3-28.3,2.8-37.2-2.6c-8.4-5.1-7.3-38.5-8.2-47.6
		C5.9,393.2-0.1,342.2,28.8,339z"/>
</g>
</svg>
