<?xml version="1.0" encoding="utf-8"?>
<!-- Generator: Adobe Illustrator 17.1.0, SVG Export Plug-In . SVG Version: 6.00 Build 0)  -->
<!DOCTYPE svg PUBLIC "-//W3C//DTD SVG 1.1//EN" "http://www.w3.org/Graphics/SVG/1.1/DTD/svg11.dtd">
<svg version="1.1" id="Layer_1" xmlns="http://www.w3.org/2000/svg" xmlns:xlink="http://www.w3.org/1999/xlink" x="0px" y="0px"
	 viewBox="6 -15.9 599.5 202.4" enable-background="new 6 -15.9 599.5 202.4" xml:space="preserve">
<path fill="#957992" d="M599.7-10.5c13.6,11.2,4.6,49,5.2,61.9c0.8,18,9.9,125.8-18.3,129.2c-66.6,7.9-134.5,5.5-201.5,5.6
	c-74.7,0-149.1,0.3-223.8-0.6c-35.5-0.4-70.5-2.8-105.8-4c-9.9-0.3-28.3,2.8-37.2-2.6c-8.4-5.1-7.3-106.6-8.2-115.7
	C8.1,42.2-3.7-2,25.1-5.1c36.8-4,176.2-1.5,212.8-0.2c69.5,2.6,170.4,1.2,203.1-4.4c20.3-3.5,44.4-3.9,79-4
	C538.2-13.7,587.7-20.5,599.7-10.5z"/>
</svg>
