<?xml version="1.0" encoding="utf-8"?>
<!-- Generator: Adobe Illustrator 17.1.0, SVG Export Plug-In . SVG Version: 6.00 Build 0)  -->
<!DOCTYPE svg PUBLIC "-//W3C//DTD SVG 1.1//EN" "http://www.w3.org/Graphics/SVG/1.1/DTD/svg11.dtd">
<svg version="1.1" id="Layer_1" xmlns="http://www.w3.org/2000/svg" xmlns:xlink="http://www.w3.org/1999/xlink" x="0px" y="0px"
	 viewBox="0 0 426.4 133.7" enable-background="new 0 0 426.4 133.7" xml:space="preserve">
<g>
	<path fill="#E9EAEB" d="M408.7,114.5c20.5-10.6,21.6-87.5-11.8-97.1c-47.2-13.5-191.2-4.6-227.1-4.5c-39.8,0-103.4,0.4-144,3
		c-30,1.9-29.7,104.9-1.7,106.2c51.3,2.4,114.2-9.2,162.9-9.3C257.4,112.6,388.3,125.1,408.7,114.5z"/>
	<g>
		<path fill="#957992" stroke="#000000" stroke-width="2.317" stroke-miterlimit="10" d="M111.8,46.7c-4.1,8.6-3.1,18.9-3.1,29.7
			c0,4.1-0.6,9.6,0.7,13.6c2.9,8.8,22.8,8.2,29.1,5.5c5.5-2.4,5.6-11.3,2.1-16.5c-3.4-5-8.8-8.1-15.1-7.5c8-2.5,17.1-3.7,19.3-13.1
			c1.9-8.2-5.5-13.2-12.7-14.9C124.3,41.7,116.2,42.1,111.8,46.7z"/>
		<path fill="#FFFFFF" stroke="#000000" stroke-width="2.317" stroke-miterlimit="10" d="M126.2,52.7c-6.6-0.2-11.8,8.8-3.4,10.6
			c3.2,0.7,6.7,0.4,7.8-3C131.6,57.2,129.2,53.5,126.2,52.7z"/>
		<path fill="#FFFFFF" stroke="#000000" stroke-width="2.317" stroke-miterlimit="10" d="M124.9,79.2c-6.9-0.9-6.3,6.6-1,8.6
			c5.8,2.2,6-4.6,5.3-6.1C128,79.2,124.9,79.2,124.9,79.2z"/>
		<path fill="#957992" stroke="#000000" stroke-width="2.317" stroke-miterlimit="10" d="M179.3,97.1c43.5-2.9,35.7-66.6-7-49.3
			C152,56.1,156.8,100.2,179.3,97.1L179.3,97.1z"/>
		<path fill="#FFFFFF" stroke="#000000" stroke-width="2.317" stroke-miterlimit="10" d="M176.1,63.5c-8,1-1.2,23,8.8,14.6
			c4.2-3.5,4.8-6.9,2.5-11.6c-1.9-3.9-4.1-5.5-8.3-3.8L176.1,63.5z"/>
		<path fill="#957992" stroke="#000000" stroke-width="2.317" stroke-miterlimit="10" d="M225.6,52.5
			c-22.8,37.1,33.6,67.7,44.2,22.9C274.9,54,236.1,32.3,225.6,52.5L225.6,52.5z"/>
		<path fill="#FFFFFF" stroke="#000000" stroke-width="2.317" stroke-miterlimit="10" d="M254.9,69.3c3.8-7.1-18.1-14.3-17-1.3
			c0.5,5.5,2.8,7.9,8,8.7c4.3,0.7,6.8-0.1,7.9-4.6L254.9,69.3z"/>
		<path fill="#957992" stroke="#000000" stroke-width="2.317" stroke-linejoin="round" stroke-miterlimit="10" d="M280.9,65.6
			c-0.2,4.4,1.1,24.2,1.5,28.9c0.4,4.1,5.3,2.4,7,2.6c3.9,0.5,3.8-5.1,4.2-7.9c0.7-4.4-0.2-6.1-0.5-12.2
			c1.7,1.4,17.4,13.4,19.4,15.2c1.5,1.3,8.4,4.4,10,3.2c1.2-0.8,2.1-3.9,2.3-5.2c0.8-6.2-6.6-9.5-10.6-12.1c-3.1-2-9.2-4.7-11.3-7.8
			c5.4-5.4,9.1-10.3,13.7-16.3c1.9-2.5,4-8.5,1.2-10.5c-10.6-7.8-15.4,15.2-23.6,17.8c-1-4.6,0.2-10.1-0.1-14.9
			c-0.3-3.9-7.6-6.7-10.5-3C280.9,48.2,281.3,60,280.9,65.6z"/>
		<path fill="none" stroke="#000000" stroke-width="2.317" stroke-linejoin="round" stroke-miterlimit="10" d="M29.1,42.4
			c0,14.2-1,26.7,2.1,40.6c0.8,3.7,0.9,8.1,2.4,11.5c7.6-4.9,11.8-5.3,17.8-5.3c3.2,0,6.3-0.8,8.3,2.2c1.7,2.6,0.3,5.6,4.8,5.4
			c2.8-0.2,5.3-3.2,5.7-5.8c7.7-3.1,14.5-1.6,23.6,5.8c-0.6-14.9-2.1-29.4,0-44.1c0.8-5.3-2.6-8.1-8.4-10.2
			c-4-1.5-10.5-1.8-14.7-0.9c-4.6,1.1-2.8,3.6-5.8,6.2c-4.4,3.9-4.7-2.6-7-4.8c-3.5-3.4-13-1.9-17.5-2.1
			C36.1,40.7,32.8,39.8,29.1,42.4z"/>
		<path fill="none" stroke="#000000" stroke-width="2.317" stroke-linejoin="round" stroke-miterlimit="10" d="M63.3,48.8
			c-4.3-3.2-11-5.6-16.4-5.8c-2.9-0.1-6.4-0.5-9.3,0c-1.7,0.3-3.1,1.4-4.9,1.9c-0.9,9.2,0.1,17.6,2.7,26c1.3,4.1,0.7,7.7,1.2,11.9
			c0.4,3.4,0.4,3.2,3.2,2.9c1.7-0.2,3.5-1.6,5.3-1.9c2.9-0.5,6.4-0.2,9.3,0c5.1,0.3,7.3,1.6,9.2,6.1c0.3-5.5,0.7-10.2,0.1-15.6
			c-0.5-4.1-1-7.7-1.8-11.7c-1-4.9-1.5-9.8-1.7-14.7c-5.3-0.9-10.2-2.2-15.5-1.5c-1.8,0.2-7.2,0.2-8,2.3c-0.4,1.2,1.9,6.7,2.1,8.2
			c0.6,4.1,1.3,8,2.3,12c0.9,3.4,3.1,7.7,3.2,11.2c3.5,0.1,6.8-1.5,10.6-1.3c3.8,0.3,5.8,1.8,9.3,3.1"/>
		<path fill="none" stroke="#000000" stroke-width="2.317" stroke-linejoin="round" stroke-miterlimit="10" d="M60.2,51.5
			c4.9-3.7,12.2-4.3,15.3-4.4c5.1-0.3,8,1.3,12.6,2.8c0.5,8.3-0.5,16.7,0.5,24.8c0.6,4.8,1.7,8.5,1.7,13.2
			c-3.7-0.6-7.8-3.4-14.6-2.6c-6.1,0.8-8.1,3.1-12.1,4.8"/>
		<path fill="none" stroke="#000000" stroke-width="2.317" stroke-linejoin="round" stroke-miterlimit="10" d="M60.9,54
			c0.3-0.7,6.3-2.1,8-2.2c2.5-0.3,5.7-1,8.8-1c1.1,0,4.5,0.3,4.7,0.5c0.6,0.6,0.3,3,0.4,3.8c0.4,6.7,1,13.5,1,20.3
			c0,2.1-0.3,4.1-0.3,6.2c-2,0-10-0.7-12-0.8c-1.5-0.1-6.5,0.6-7,1"/>
	</g>
	
		<path fill="none" stroke="#000000" stroke-width="9.2681" stroke-linecap="round" stroke-linejoin="round" stroke-miterlimit="10" d="
		M340.4,46.4c2.5,9.6,17.9,32.4,27.3,44.7c8.1-9.1,21.6-23.1,26.1-34.5"/>
</g>
</svg>
