<?xml version="1.0" encoding="utf-8"?>
<!-- Generator: Adobe Illustrator 17.1.0, SVG Export Plug-In . SVG Version: 6.00 Build 0)  -->
<!DOCTYPE svg PUBLIC "-//W3C//DTD SVG 1.1//EN" "http://www.w3.org/Graphics/SVG/1.1/DTD/svg11.dtd">
<svg version="1.1" id="Layer_1" xmlns="http://www.w3.org/2000/svg" xmlns:xlink="http://www.w3.org/1999/xlink" x="0px" y="0px"
	 viewBox="0 0 171.1 45.8" enable-background="new 0 0 171.1 45.8" xml:space="preserve">
<path fill="#E9E9EA" d="M165.2,42.6c8.3-4.3,8.8-35.6-4.8-39.5c-19.2-5.5-77.9-1.8-92.5-1.8c-16.2,0-42.1,0.2-58.6,1.2
	C-3,3.2-2.9,45.1,8.5,45.7c20.9,1,46.5-3.8,66.3-3.8C103.5,41.8,156.8,46.9,165.2,42.6z"/>
<path fill="#957992" stroke="#231F20" stroke-width="0.9294" stroke-miterlimit="10" d="M57.7,19.7c0.8-3.4-2.2-5.4-5.1-6.1
	c-3.2-0.7-6.5-0.6-8.3,1.3c-1.7,3.5-1.3,7.7-1.3,12.1c0,1.7-0.3,3.9,0.3,5.5c1.2,3.6,9.3,3.4,11.9,2.2c2.2-1,2.3-4.6,0.9-6.7
	c-1.4-2-3.6-3.3-6.1-3.1C53.1,24,56.8,23.5,57.7,19.7z M51.3,29.3c0.3,0.6,0.2,3.4-2.2,2.5c-2.2-0.8-2.4-3.9,0.4-3.5
	C49.6,28.2,50.8,28.2,51.3,29.3z M51.9,20.5c-0.5,1.4-1.9,1.5-3.2,1.2c-3.4-0.7-1.3-4.4,1.4-4.3C51.3,17.7,52.3,19.2,51.9,20.5z"/>
<path fill="#957992" stroke="#231F20" stroke-width="0.9294" stroke-miterlimit="10" d="M68.9,15.4c-8.3,3.4-6.3,21.3,2.8,20.1
	C89.4,34.3,86.3,8.4,68.9,15.4z M74,27.7c-4.1,3.4-6.8-5.5-3.6-5.9l1.2-0.3c1.7-0.7,2.6-0.1,3.4,1.5C75.9,25,75.7,26.3,74,27.7z"/>
<path fill="#957992" stroke="#231F20" stroke-width="0.9294" stroke-miterlimit="10" d="M90.6,17.3c-9.3,15.1,13.7,27.6,18,9.3
	C110.7,17.9,94.9,9.1,90.6,17.3z M102.5,24.2l-0.5,1.1c-0.4,1.8-1.5,2.2-3.2,1.9c-2.1-0.3-3.1-1.3-3.3-3.6
	C95.1,18.4,104.1,21.3,102.5,24.2z"/>
<path fill="#957992" stroke="#231F20" stroke-width="0.9294" stroke-linejoin="round" stroke-miterlimit="10" d="M113.1,22.7
	c-0.1,1.8,0.4,9.9,0.6,11.8c0.1,1.7,2.2,1,2.8,1.1c1.6,0.2,1.5-2.1,1.7-3.2c0.3-1.8-0.1-2.5-0.2-5c0.7,0.6,7.1,5.5,7.9,6.2
	c0.6,0.5,3.4,1.8,4.1,1.3c0.5-0.3,0.9-1.6,0.9-2.1c0.3-2.5-2.7-3.9-4.3-4.9c-1.3-0.8-3.8-1.9-4.6-3.2c2.2-2.2,3.7-4.2,5.6-6.6
	c0.8-1,1.6-3.5,0.5-4.3c-4.3-3.2-6.3,6.2-9.6,7.2c-0.4-1.9,0.1-4.1-0.1-6.1c-0.1-1.6-3.1-2.7-4.3-1.2
	C113.1,15.6,113.2,20.4,113.1,22.7z"/>
<path fill="none" stroke="#231F20" stroke-width="0.9294" stroke-linejoin="round" stroke-miterlimit="10" d="M10.6,13.2
	c0,5.8-0.4,10.9,0.9,16.5c0.3,1.5,0.4,3.3,1,4.7c3.1-2,4.8-2.2,7.2-2.2c1.3,0,2.6-0.3,3.4,0.9c0.7,1.1,0.1,2.3,2,2.2
	c1.1-0.1,2.2-1.3,2.3-2.4c3.2-1.3,5.9-0.7,9.6,2.4c-0.3-6.1-0.9-12,0-17.9c0.3-2.2-1.1-3.3-3.4-4.2c-1.6-0.6-4.3-0.7-6-0.3
	c-1.9,0.4-1.1,1.4-2.4,2.5c-1.8,1.6-1.9-1.1-2.8-2c-1.4-1.4-5.3-0.8-7.1-0.9C13.4,12.5,12.1,12.2,10.6,13.2z"/>
<path fill="none" stroke="#231F20" stroke-width="0.9294" stroke-linejoin="round" stroke-miterlimit="10" d="M24.5,15.8
	c-1.8-1.3-4.5-2.3-6.7-2.4c-1.2,0-2.6-0.2-3.8,0c-0.7,0.1-1.3,0.6-2,0.8c-0.3,3.8,0,7.2,1.1,10.6c0.5,1.6,0.3,3.2,0.5,4.9
	c0.2,1.4,0.1,1.3,1.3,1.2c0.7-0.1,1.4-0.7,2.2-0.8c1.2-0.2,2.6-0.1,3.8,0c2.1,0.1,3,0.7,3.8,2.5c0.1-2.2,0.3-4.2,0-6.3
	c-0.2-1.7-0.4-3.2-0.7-4.8c-0.4-2-0.6-4-0.7-6c-2.1-0.4-4.2-0.9-6.3-0.6c-0.7,0.1-3,0.1-3.3,0.9c-0.2,0.5,0.8,2.7,0.9,3.4
	c0.3,1.7,0.5,3.3,1,4.9c0.4,1.4,1.3,3.1,1.3,4.6c1.4,0.1,2.8-0.6,4.3-0.5c1.6,0.1,2.4,0.7,3.8,1.3l0.1-0.2c0.2-0.1,2.2-0.4,2.8-0.4
	c0.8,0.1,4.1,0.3,4.9,0.3c0-0.9,0.1-1.6,0.1-2.5c0-2.8-0.2-5.5-0.4-8.2c0-0.3,0.1-1.3-0.2-1.5c-0.1-0.1-1.5-0.2-1.9-0.2
	c-1.3,0-2.6,0.3-3.6,0.4c-0.7,0.1-3.1,0.6-3.3,0.9l-0.3-1c2-1.5,5-1.7,6.2-1.8c2.1-0.1,3.3,0.5,5.1,1.1c0.2,3.4-0.2,6.8,0.2,10.1
	c0.3,2,0.7,3.4,0.7,5.4c-1.5-0.3-3.2-1.4-5.9-1.1c-2.5,0.3-3.3,1.3-4.9,2"/>
<path fill="none" stroke="#231F20" stroke-width="3.7175" stroke-linecap="round" stroke-linejoin="round" stroke-miterlimit="10" d="
	M137.3,14.8c1,3.9,7.3,13.2,11.1,18.2c3.3-3.7,8.8-9.4,10.6-14"/>
</svg>
