<?xml version="1.0" encoding="utf-8"?>
<!-- Generator: Adobe Illustrator 17.1.0, SVG Export Plug-In . SVG Version: 6.00 Build 0)  -->
<!DOCTYPE svg PUBLIC "-//W3C//DTD SVG 1.1//EN" "http://www.w3.org/Graphics/SVG/1.1/DTD/svg11.dtd">
<svg version="1.1" id="Layer_1" xmlns="http://www.w3.org/2000/svg" xmlns:xlink="http://www.w3.org/1999/xlink" x="0px" y="0px"
	 viewBox="0 597 638 195" enable-background="new 0 597 638 195" xml:space="preserve">
<path fill="#E9EAEB" d="M40.8,626c-30.4,15.7-50.5,132.1-0.9,146.3c70.1,20.1,284.1,6.7,337.6,6.7c59.2,0,153.7-0.6,214-4.4
	c44.6-2.9,38.3-138-2.4-146.4c-63-13.1-164.5-9.1-236.9-9C247.5,619.4,71.2,610.3,40.8,626z"/>
<path fill="none" stroke="#000000" stroke-width="2.3743" stroke-miterlimit="10" d="M84.3,652c-3.8,0.1-7.4,0.9-8.7,4.4
	c-1.1,3.4-0.3,9.1,0,12.7c0.4,5-0.4,11.1,0,16.4c0.3,5.3,1.7,15.8,1.7,21.1c0,12-1.1,15.8,1.6,25.1c3.8,12.1,14.8,11.5,27.5,11
	c6.4-0.3,14.6,1.3,20.8,0c6.8-1.4,5.8-6.7,5.8-11.7c0-13.4-6.4-25.9-6.3-39.5c0-8.9,1.3-19.7-1.1-28.2c-2.6-8.9-12.3-10.7-22-11.1
	C100.6,651.9,85.9,652,84.3,652z"/>
<path fill="none" stroke="#000000" stroke-width="2.3743" stroke-miterlimit="10" d="M83.2,738.8c-2.7-2.9-8.3-6.4-8.4-9.3
	c-0.1-3.4-1.4-8.1-1-11.3c0.4-3.8-0.6-6-0.6-10s-0.3-5.6-0.3-9.4c0-1.9-0.4-18.1-0.4-20s0.3-4.1,0-6c-0.6-4.8-1.6-9.8-1.6-14.6
	c0-2.3-0.1-6.3,2.6-7.4c0.7-0.3,10.2-2.2,12-2.3c3.8-0.4,6.8,0.1,10.7,0.1c2.2,0,4.4,0,6.7,0c1.6,0,3.5-0.3,5,0.1
	c2.4,0.7,5,2.9,7.1,4.3c0.4,0.3,0.9,0.6,1.3,0.7"/>
<path fill="none" stroke="#000000" stroke-width="2.3743" stroke-miterlimit="10" d="M104.5,728.8c-5.3-0.9-4.1,7.7,0.9,7.6
	C110.5,736.4,108.7,729.7,104.5,728.8"/>
<path fill="#76C37C" stroke="#000000" stroke-width="2.3743" stroke-miterlimit="10" d="M248.4,698.2c6.6-0.4,8,11,10.7,16.1
	c3.3,6.4,13.5,29.2,22.1,18.4c8.9-11-4.3-30.9-9.1-39.8c-6.4-11.4-10.1-25.1-23.5-26.5c-5.4-0.6-8.3,1.1-11.4,5.6
	c-0.7,1-2.2,5.1-3.7,5.4c-2.9,0.7-2-2.3-2.9-4.3c-1.9-4.5-7.3-6.4-11.8-6.6c-9.7-0.3-32.8,47.1-33.9,52.6
	c-1.1,5.4-2.7,13.4,3.4,15.3c5.4,1.7,9.3-2.9,12.4-7.1c2.9-4,10.5-33.2,16.8-30.4c2.6,1.1,5.6,16.9,11,19.1
	C235.9,719,245.1,698.5,248.4,698.2z"/>
<path fill="#76C37C" stroke="#000000" stroke-width="2.3743" stroke-miterlimit="10" d="M411.5,701.2c-6.7,0-13.4,0.3-14.3-7.3
	c-1-8.4,0.3-16.2-2-24.5c-1.6-5.4-3.4-12.8-9.1-15.1c-5.7-2.4-13.5,2.3-12.7,8.7c0.9,9,1.1,25.5,0,34.1c-0.9,7.1-0.6,14.3-1,21.5
	c-0.3,4.5-1.3,9.4,0.6,13.8c4.3,9.1,22.6,8.3,30.6,7.9c14.6-0.7,30.4-5.1,30.5-22C434,704.5,423.3,701.2,411.5,701.2z M408.3,724.9
	c-6,7-15.3-7-7-10C406,711.7,411.9,720.7,408.3,724.9z"/>
<path fill="#76C37C" stroke="#000000" stroke-width="2.3743" stroke-miterlimit="10" d="M310.1,665.4
	c-30.5,12.3-23.2,78.1,10.4,73.7C385.4,734.6,373.8,639.6,310.1,665.4z M328.8,710.6c-14.8,12.5-25.1-20.4-13.1-21.8l4.4-1
	c6.3-2.6,9.7-0.3,12.4,5.6C335.9,700.4,335.1,705.3,328.8,710.6z"/>
<path fill="none" stroke="#000000" stroke-width="2.3743" stroke-miterlimit="10" d="M91.8,659.1c-2,0-9.3-1-10.4,0.1
	c-1.1,1.1,0,8.7,0,10.7c0,6.7,1.4,12.7,1.4,19.1c0,7.1,0.4,13.8,0.4,21c0,3.3-0.9,7.4,1.3,9.7c2.6,2.6,6.3,1.9,9.7,1.4
	c4.1-0.4,8.1-0.4,12.3-0.4c3.5,0,6.8,1.4,10.1,1.4c10.4,0.1,4.8-15.6,4.5-21.8c-0.3-5.1-1.3-10-1.9-14.8c-0.6-4.8-0.3-10-0.3-14.8
	c0-2.7,0.9-7.4-1.3-9.4c-2.6-2.2-8.1-1.7-11.4-1.7c-3,0-6-1-8.9-0.7L91.8,659.1z"/>
<path fill="none" stroke="#000000" stroke-width="9.4974" stroke-linecap="round" stroke-linejoin="round" stroke-miterlimit="10" d="
	M473.7,666c3.8,14.3,26.8,48.5,40.8,66.7c12.1-13.5,32.4-34.4,38.9-51.6"/>
</svg>
