<svg version="1.1" class="cvg"
	 viewBox="0 396 612 186" enable-background="new 0 396 612 186" xml:space="preserve">
<g>
	<path fill="#E8E9EA" d="M31,417.1c-29.9,15.5-49.7,130.1-0.8,144.2c69.1,19.8,280,6.7,332.6,6.7c89.8,0,275,49.1,246.2-95.5
		c-20.5-103-176-62.2-271.1-62.1C234.8,410.7,61,401.6,31,417.1z"/>
	<path fill="none" stroke="#231F20" stroke-width="3.34" stroke-miterlimit="10" d="M51.7,467.5c0,5.3-0.5,10.4-0.5,15.7
		c0,7.2-0.4,10.8,6.8,13c6.4,1.9,13.9,1.5,20.5,1.9c6.3,0.3,12.4,1.8,19.1,1.4c-0.1-4.9,1.5-10.1,1.5-15.1c0-5.4,0.3-11-0.1-16.4
		c-7.5-3.3-16.5-3.5-24.7-3.5C70.7,464.7,51.2,461.4,51.7,467.5z"/>
	<path fill="none" stroke="#231F20" stroke-width="3.34" stroke-miterlimit="10" d="M45.9,456c-2,3.1,0,10.9-0.9,14.9
		c-0.9,4.1-1.2,7.2-1.4,11.5c-0.4,6.7-2.3,13-1.8,20.1c4.3,2.3,10.5,0.7,15.1,1c7.7,0.6,15.2,3.5,23.1,3.9
		c8.4,0.4,16.6,0.6,25.1,0.5c1.5-3.6,1.3-11.1,1.4-15c0.1-4.1,0.6-7.8,0.9-11.8c0.7-6.6,1.1-13.2,0.9-20.1c-5.7-1.6-11-3.4-16.9-4
		c-5.9-0.6-11.9,0.5-17.8-0.6C65.3,454.9,54,452.3,45.9,456"/>
	<path fill="none" stroke="#231F20" stroke-width="3.34" stroke-miterlimit="10" d="M45,512c-2.8,1.7-5.6,4.7-8.4,6.6
		c-1.5,1-5.6,3.4-6.2,5.1c-2.2,6.1,23.9,4.2,28.1,4.9c10.8,1.5,20.9,1.7,31.8,1.7c6.5,0,13.5,0.5,19.7-0.5
		c0.3-4.2,0.8-11.3-2.6-14.4c-4.7-4.2-16.5-1.5-22.9-2.4c-6.8-1-13.9-0.6-20.8-1.3C60.4,511.1,45.5,510.8,45,512z"/>
	<path fill="none" stroke="#231F20" stroke-width="3.34" stroke-miterlimit="10" d="M44.2,521.5c12.2,0.6,24.4,2.1,36.8,2.4
		c4.7,0.1,9.2,0,13.9,0"/>
	<path fill="none" stroke="#231F20" stroke-width="3.34" stroke-miterlimit="10" d="M52.7,517.4c8.1,2,17.7,0.8,26.1,1.6
		c4.1,0.4,8.2,0.4,12.4,0.4"/>
	<path fill="none" stroke="#231F20" stroke-width="3.34" stroke-miterlimit="10" d="M125.7,479.6c0,13.9,0.1,30.9-0.9,44.8
		c-0.1,1.1-1.4,4.1-1,5.1c1.1,2.5,6.9,2.2,9.7,2.3c4.3,0.2,8.3,0.5,12.8,0.5c5,0,9.7,0.5,10.8-5.1c1.4-6.9-0.1-15.5,0-22.7
		c0-5.8-1.9-10.9-1.8-16.7c0-5.6-0.3-10.8-0.9-16.2c-0.7-5.5,0.5-8.6-5.7-10c-4.7-1-9.9-0.7-14.8-0.7c-1,0-5.3-0.6-6.1,0
		c-1.3,1-1.2,4.8-1.3,6.6C126,471.6,125.6,475.5,125.7,479.6"/>
	<path fill="none" stroke="#231F20" stroke-width="3.34" stroke-miterlimit="10" d="M131.3,480.1c4.8,2.3,11.7-0.1,16.8,1.8"/>
	<path fill="none" stroke="#231F20" stroke-width="3.34" stroke-miterlimit="10" d="M132.6,496c4.4,0.9,10.6-0.4,14.4,1.4"/>
	<path fill="none" stroke="#231F20" stroke-width="3.34" stroke-miterlimit="10" d="M133.5,507.6c0,1.4,0,2.7,0.1,4.2
		c1.8,0.1,3.7,0.1,5.5,0c0.1-1.2,0.6-3.9,0-5C138.2,505.2,134.1,505.4,133.5,507.6z"/>
	<path fill="none" stroke="#231F20" stroke-width="3.34" stroke-miterlimit="10" d="M146,505.8c-3.8,5.5-2.5,6.6,2.8,6.4
		C149,509.5,150.1,504.9,146,505.8z"/>
	<path fill="none" stroke="#231F20" stroke-width="3.34" stroke-miterlimit="10" d="M152.3,463.5c-2.1-1.6-4.4-6.4-7.2-8.5
		c-4-0.4-8,0.5-12-0.2c-3.7-0.7-10.5-4-14-2.1c-2.8,1.4-2.5,5.5-2.7,8.3c-0.6,8.2-0.4,16.6-0.9,24.7c-0.5,7.7-0.1,15.5-0.6,23.3
		c-0.5,8.6,5.1,12.8,8.9,20.5"/>
	<path fill="none" stroke="#231F20" stroke-width="3.34" stroke-miterlimit="10" d="M108.3,460.8c-2.6-0.6-2.2-2.9-3.4-5
		c-0.5-0.9-2-3.5-2.9-4c-1.1-0.6-4.3-0.4-5.7-0.6c-3.1-0.5-6.6-0.9-9.9-1.1c-5-0.3-10.1-0.1-15-0.1c-4.2,0-8.1-1-12.2-0.9
		c-3.5,0-6.9-0.1-10.3-0.5c-1.5-0.2-5.2-0.8-6.8,0c-1.7,0.9-2.5,4.6-2.8,6.4c-0.4,2.6-0.4,5.5-0.5,8.1c-0.2,3.5-0.8,6.6-1.5,10
		c-1,4.7-2.5,9.2-2.5,14c0,3.4-1,6.2,0.5,9.1c1.2,1.3,4.7,5.6,5.8,5.3"/>
	<path fill="#D46161" stroke="#231F20" stroke-width="3.34" stroke-miterlimit="10" d="M247.7,483.2c-2.4,4.8-7.5,11.5-10.8,11.7
		c-6.4,0.5-11-12.2-13.5-17.2c-3.1-6.3-14.2-26.8-22.7-16.4c-8.6,10.7,8.4,30.1,13.3,38.7c6.2,11.1,9.8,24.4,23,25.9
		c5.3,0.6,8.1-1.1,11.1-5.5c0.7-1,2.1-5,3.5-5.2c2.8-0.6,1.9,2.2,2.7,4.2c1.9,4.5,7.2,6.6,11.5,6.4c5.6-0.3,9.7-5.5,13.9-9
		c3.6-2.9,7.7-5.3,10.4-9.5c1.7-2.7,2.5-6.1,3.9-9.2c2-5.2,3.8-9.5,5-14.9c1.1-5.3,2.7-13.1-3.3-14.9c-5.3-1.7-9,2.8-12.1,6.9
		c-2.8,3.9-10.2,23.8-16.3,20.9c-2.5-1.2-6.3-14.9-10.7-18.6C254.9,476.1,248.3,481.9,247.7,483.2z"/>
	<path fill="#D46161" stroke="#231F20" stroke-width="3.34" stroke-miterlimit="10" d="M428.6,492.6c-6.5,0-13,0.3-13.9-7.2
		c-0.9-8.2,0.3-15.7-2-23.9c-1.5-5.3-3.3-12.6-8.9-14.8c-5.6-2.2-13.2,2.4-12.4,8.6c0.8,8.7,1.1,24.9,0,33.3c-0.9,7-0.5,13.9-1,21
		c-0.3,4.5-1.3,9.1,0.6,13.4c4.1,8.9,21.9,8,29.9,7.6c14.2-0.7,29.5-5,29.7-21.4C450.6,495.7,440.2,492.6,428.6,492.6z M425.7,515.7
		c-5.9,6.8-14.9-6.8-6.8-9.7C423.4,502.9,429.2,511.7,425.7,515.7z"/>
	<path fill="#D46161" stroke="#231F20" stroke-width="3.34" stroke-miterlimit="10" d="M376.7,514.6c-5.7-8.4-23.8-7-32.6-8
		c-3.6-0.4-10.3-1-12.9-3.9c-2.1-2.3-2.6-7.2,1.3-7.3c0,0,17.7-0.4,23.3-1c2.7-0.3,10.3-0.5,12.6-2.3c4.7-3.8,1.8-10.9-0.8-14.6
		c-5-7-10.4-10.9-18.6-13.4c-13.1-4-32.8-3.5-38.3,11.4c-4.6,12.6-4.2,24.7,4.1,35.6c8.6,11.2,20.6,14.8,33.9,16.8
		c8.3,1.2,19.2,5.5,25.9-0.6C378.3,524,379.7,519,376.7,514.6z M338,474l5,0.5c3.9,0.4,8.8,7.5,5.3,8.4c-4.3,1.6-11.1,4.3-14.3-0.2
		C331.3,479.3,333.1,473,338,474z"/>
	
		<path fill="none" stroke="#231F20" stroke-width="13.3599" stroke-linecap="round" stroke-linejoin="round" stroke-miterlimit="10" d="
		M492.5,458.5c3.8,14,26.2,47.4,40,65.4c11.9-13.3,31.7-33.8,38.2-50.5"/>
</g>
</svg>
