<?xml version="1.0" encoding="utf-8"?>
<!-- Generator: Adobe Illustrator 17.1.0, SVG Export Plug-In . SVG Version: 6.00 Build 0)  -->
<!DOCTYPE svg PUBLIC "-//W3C//DTD SVG 1.1//EN" "http://www.w3.org/Graphics/SVG/1.1/DTD/svg11.dtd">
<svg version="1.1" id="Layer_1" xmlns="http://www.w3.org/2000/svg" xmlns:xlink="http://www.w3.org/1999/xlink" x="0px" y="0px"
	 viewBox="0 0 58 59" enable-background="new 0 0 58 59" xml:space="preserve">
<g>
	<g>
		<path fill="#6A7476" d="M29.313,55.466c-13.767,0-24.966-11.2-24.966-24.966c0-13.767,11.2-24.966,24.966-24.966
			c13.766,0,24.966,11.2,24.966,24.966C54.278,44.266,43.078,55.466,29.313,55.466z M29.313,10.465
			c-11.048,0-20.035,8.987-20.035,20.035c0,11.047,8.987,20.034,20.035,20.034c11.047,0,20.034-8.987,20.034-20.034
			C49.347,19.453,40.359,10.465,29.313,10.465z"/>
	</g>
	<g>
		<path fill="#6A7476" d="M24.224,25.148c-1.844,0.64-3.585,2.378-4.386,4.076c-0.918,1.949-1.565,3.695-1.784,5.887
			c-0.16,1.595-0.537,3.39-0.167,4.819c7.172,0.675,22.763,0.328,22.763,0.328c0.039-0.556,0.063-2.87,0.004-3.424
			c-0.264-2.474-0.616-3.75-1.923-5.827c-1.136-1.805-2.519-3.933-4.456-4.956c-1.625-0.858-3.287-1.255-5.065-1.54
			C26.052,24.51,25.723,24.628,24.224,25.148z"/>
		<path fill="#6A7476" d="M18.388,28.499c0.031,0.583,0.656,1.597,0.263,2.264c-0.92,1.56-1.79,1.859-2.946,1.705
			c-1.919-0.256-3.368-0.368-4.43-2.228c-0.561-0.982-0.918-2.977,0.24-3.703c0.366-0.229,1.063-0.31,1.489-0.359
			c0.166-0.019,0.45,0.074,0.594-0.015c0.305-0.19,0.426-0.993,0.617-1.309c1.121-1.851,2.675-2.841,4.766-3.388
			c2.407-0.629,4.607-0.798,7.079-0.798c3.114,0,6.232-0.12,9.296,0.358c1.593,0.248,4.134,1.673,5.68,3.522
			c0.382,0.457,0.616,0.811,0.862,1.337c0.373-0.007,1.337-0.699,1.627-0.723c1.134-0.093,3.127,0.462,3.861,1.39
			c0.502,0.634,0.671,2.658,0.256,3.305c-0.529,0.823-2.14,1.52-3.028,1.77c-1.57,0.441-2.91,0.622-4.289-0.297
			c-0.948-0.632-1.893-1.702-1.419-3.011c0.225-0.622,0.732-0.649,0.461-1.246c-0.265-0.585-1.176-1.165-1.705-1.472
			c-0.771-0.448-4.118-1.541-5.183-1.59c-2.024-0.093-4.066-0.385-6.112-0.209c-2.022,0.175-4.335,0.344-6.012,1.585
			C19.444,26.058,18.838,27.492,18.388,28.499z"/>
	</g>
</g>
</svg>
