<?xml version="1.0" encoding="utf-8"?>
<!-- Generator: Adobe Illustrator 17.1.0, SVG Export Plug-In . SVG Version: 6.00 Build 0)  -->
<!DOCTYPE svg PUBLIC "-//W3C//DTD SVG 1.1//EN" "http://www.w3.org/Graphics/SVG/1.1/DTD/svg11.dtd">
<svg version="1.1" id="Layer_1" xmlns="http://www.w3.org/2000/svg" xmlns:xlink="http://www.w3.org/1999/xlink" x="0px" y="0px"
	 viewBox="0 0 58 59" enable-background="new 0 0 58 59" xml:space="preserve">
<path fill="#6A7476" d="M29.21,4.588c-13.766,0-24.966,11.2-24.966,24.966c0,13.767,11.2,24.966,24.966,24.966
	c13.767,0,24.966-11.199,24.966-24.966C54.176,15.788,42.977,4.588,29.21,4.588z M42.738,44.287V32.679c0,0,3.665,0.746,4.51,0
	c0.211-0.187,0.108-0.867,0-1.127c-0.915-2.209-6.764-7.764-6.764-7.764s1.594-7.173,0-9.146c-0.709-0.877-3.712-0.797-4.51,0
	c-0.996,0.996,0,5.637,0,5.637l-6.764-6.764c0,0-15.598,12.146-18.038,18.038c-0.108,0.26-0.211,0.941,0,1.127
	c0.845,0.746,4.51,0,4.51,0v11.608c-3.987-3.664-6.505-8.904-6.505-14.733c0-11.047,8.987-20.034,20.034-20.034
	s20.034,8.987,20.034,20.034C49.244,35.383,46.726,40.623,42.738,44.287z"/>
</svg>
