<?xml version="1.0" encoding="utf-8"?>
<!-- Generator: Adobe Illustrator 17.1.0, SVG Export Plug-In . SVG Version: 6.00 Build 0)  -->
<!DOCTYPE svg PUBLIC "-//W3C//DTD SVG 1.1//EN" "http://www.w3.org/Graphics/SVG/1.1/DTD/svg11.dtd">
<svg version="1.1" id="Layer_1" xmlns="http://www.w3.org/2000/svg" xmlns:xlink="http://www.w3.org/1999/xlink" x="0px" y="0px"
	 viewBox="0 0 52.4 35.7" enable-background="new 0 0 52.4 35.7" xml:space="preserve">
<g>
	<path fill="#203C69" d="M41.2,19.9c-0.9-1.1-1.8-2.2-2.7-3.4c-0.4-0.6-1.1-1.1-1.7-1.6c-0.4-0.3-0.9-0.5-1.3-0.8
		c-0.8-0.5-1.6-1.2-2.5-1.6c-1.5-0.7-3-1.2-4.6-1.9c-1-0.4-2.1-0.8-3.2-0.9c-0.6-0.1-1.3-0.3-1.9-0.3c-0.9-0.1-1.8,0-2.7,0
		c-2.3,0.1-4.7,0.2-6.9,1.1c-0.9,0.4-1.9,0.6-2.8,0.9c-0.3,0.1-0.6,0.2-0.9,0.3c-0.2,0.1-0.4,0.2-0.6,0.3c-0.3,0.2-0.6,0.4-1,0.6
		c-1,0.9-1.9,2.1-2.2,3.3c-0.4,1.1-0.6,2.3-0.5,3.5c0,0.2,0,0.7,0.1,1.1c0.1,0.6,0.2,1.2,0.5,1.6c0.2,0.4,0.5,0.7,0.7,1.1
		c1,1.2,2.3,2.2,3.7,2.6c0.8-0.1,1.7-0.2,2.5-0.3c1.5-0.2,3-0.4,4.4-0.7c1.6-0.3,3.2-0.3,4.8,0.1c0.9,0.3,1.8,0.6,2.7,1
		c0.6,0.2,1.1,0.5,1.6,0.8c1,0.7,2,1.4,3,2.2c1,0.8,2.3,1.1,3.5,1.4c1,0.3,2,0.3,3,0.1c1.3-0.2,2.5-0.5,3.4-1.6
		c0.2-0.3,0.4-0.5,0.7-0.7c0.6-0.5,1.1-1,1.3-1.8c0.3-1.1,0.8-2.2,0.6-3.3c-0.1-0.5-0.2-1-0.3-1.4C41.8,21.1,41.6,20.4,41.2,19.9z
		 M30.1,27.6c-0.9-0.7-1.7-1.6-2.6-2.2c-1.6-1-3.2-1.6-5.1-1.8c-0.8-0.1-1.5-0.2-2.3-0.1c-0.6,0-1.2,0.2-1.8,0.3
		c-1.3,0.2-2.5,0.4-3.8,0.6c-0.7,0.1-1.3,0.1-2,0.1c-0.1,0-0.2,0-0.3-0.1c0.5-0.1,0.9-0.2,1.4-0.3c0.8-0.2,1.7-0.4,2.5-0.6
		c0.9-0.2,1.7-0.5,2.5-0.7c1.6-0.5,3.3-0.6,5-0.4c1.2,0.2,2.5,0.5,3.6,1.1c0.8,0.4,1.4,1.2,2,1.9c1,1.4,2.3,2.6,3.7,3.5
		c0.1,0.1,0.3,0,0.4,0.1c0.1,0,0.2,0.2,0.3,0.2C32.1,29.2,31.1,28.4,30.1,27.6z M41,22.2c0.1,0.7,0.2,1.5,0.2,2.3
		c0,0.5-0.2,1-0.4,1.4c-0.3,0.5-0.6,1.1-1,1.5c-0.6,0.6-1.4,0.8-2.2,0.9c-0.6,0.1-1.1,0.1-1.7,0.1c-1.1,0-1.8-0.7-2.5-1.3
		c-0.6-0.5-1.2-1-1.7-1.6c-0.5-0.5-0.9-1.2-1.4-1.7c-0.7-0.7-1.4-1.6-2.4-1.9c-0.8-0.3-1.7-0.6-2.5-0.7c-0.8-0.2-1.6-0.3-2.4-0.3
		c-1.1,0-2.1,0.1-3.2,0.2c-1.1,0.1-2.2,0.4-3.3,0.9c-1.1,0.5-2.3,1-3.6,1.1c-0.4,0-0.9,0.2-1.3,0.2c-1.2,0.1-2.3-0.4-3.1-1.3
		C8.2,22,8.1,22,7.9,21.9c0-0.1,0-0.3,0-0.5c-0.3-0.6-0.6-1.2-0.9-1.8c-0.1-0.1,0-0.3,0-0.5c0-0.1,0.1-0.3,0-0.4
		c-0.2-0.8-0.1-1.5,0.3-2.3c0.3-0.5,0.4-1.2,0.7-1.7c0.4-0.7,0.9-1.3,1.7-1.5c0.8-0.2,1.5-0.4,2.3-0.7c0.9-0.3,1.8-0.7,2.7-1.2
		c1-0.5,2.1-0.8,3.3-0.9c1.1-0.1,2.2-0.2,3.3-0.2c0.8,0,1.7,0.1,2.5,0.2c0.9,0.1,1.8,0.3,2.8,0.5c0.6,0.1,1.1,0.4,1.6,0.5
		c1.7,0.5,3.3,1.3,4.9,2.1c1.3,0.7,2.6,1.4,3.7,2.3c1.1,0.9,1.8,2.1,2.8,3C40.4,20,40.8,21,41,22.2z"/>
	<path fill="#75AEDE" d="M7.9,21.9c0-0.1,0-0.3,0-0.5c-0.3-0.6-0.6-1.2-0.9-1.8c-0.1-0.1,0-0.3,0-0.5c0-0.1,0.1-0.3,0-0.4
		c-0.2-0.8-0.1-1.5,0.3-2.3c0.3-0.5,0.4-1.2,0.7-1.7c0.4-0.7,0.9-1.3,1.7-1.5c0.8-0.2,1.5-0.4,2.3-0.7c0.9-0.3,1.8-0.7,2.7-1.2
		c1-0.5,2.1-0.8,3.3-0.9c1.1-0.1,2.2-0.2,3.3-0.2c0.8,0,1.7,0.1,2.5,0.2c0.9,0.1,1.8,0.3,2.8,0.5c0.6,0.1,1.1,0.4,1.6,0.5
		c1.7,0.5,3.3,1.3,4.9,2.1c1.3,0.7,2.6,1.4,3.7,2.3c1.1,0.9,1.8,2.1,2.8,3c0.9,0.9,1.3,1.9,1.5,3.1c0.1,0.7,0.2,1.5,0.2,2.3
		c0,0.5-0.2,1-0.4,1.4c-0.3,0.5-0.6,1.1-1,1.5c-0.6,0.6-1.4,0.8-2.2,0.9c-0.6,0.1-1.1,0.1-1.7,0.1c-1.1,0-1.8-0.7-2.5-1.3
		c-0.6-0.5-1.2-1-1.7-1.6c-0.5-0.5-0.9-1.2-1.4-1.7c-0.7-0.7-1.4-1.6-2.4-1.9c-0.8-0.3-1.7-0.6-2.5-0.7c-0.8-0.2-1.6-0.3-2.4-0.3
		c-1.1,0-2.1,0.1-3.2,0.2c-1.1,0.1-2.2,0.4-3.3,0.9c-1.1,0.5-2.3,1-3.6,1.1c-0.4,0-0.9,0.2-1.3,0.2c-1.2,0.1-2.3-0.4-3.1-1.3
		C8.2,22,8.1,22,7.9,21.9z M8.3,19.5c0.2,0.1,0.4,0.2,0.5,0.4c0.5,0.7,1.2,1.1,2.1,1.3c1,0.2,2,0.1,2.9-0.3c0.8-0.3,1.5-0.7,1.9-1.6
		c0.2-0.6,0.8-0.9,0.8-1.7c0.1-0.9-0.2-1.5-0.8-2.1c-0.1-0.1-0.1-0.1-0.2-0.2c-0.2-0.6-0.6-0.9-1.2-1.1C14.2,14.1,14,14,13.9,14
		c-0.8-0.5-1.7-0.5-2.6-0.3c-0.9,0.2-1.7,0.8-2.2,1.6c-0.2,0.3-0.6,0.6-0.6,1c-0.1,0.7-0.1,1.4-0.2,2.1C8.2,18.7,8.3,19.1,8.3,19.5z
		 M29,15.3c-0.3-0.6-0.7-1.1-1-1.7c-0.5-0.9-1.2-1.2-2.1-1.4C25,12,24.1,12,23.2,12.3c-0.8,0.2-1.3,0.7-1.6,1.4
		c-0.2,0.5-0.3,1.1-0.6,1.6c-0.5,0.9-0.2,1.7,0.3,2.4c0.7,1.2,1.9,1.6,3.2,1.6c0.9,0,1.7-0.1,2.6-0.3C28.5,18.4,29.6,17,29,15.3z
		 M32.6,24.4c0,0.1,0.1,0.3,0.1,0.4c0.5,1,1.3,1.4,2.3,1.8c0.4,0.1,0.6-0.1,0.8-0.1c0.1,0,0.3,0,0.4,0.1c0.6,0.1,1.2,0.2,1.7-0.3
		c0.5-0.5,1.1-1,1.5-1.5c0.4-0.6,0.7-1.3,0.5-2.1c-0.2-0.6-0.3-1.2-0.5-1.8c-0.2-0.7-0.3-1.4-1.1-1.8c-0.9-0.4-1.7-0.8-2.7-0.5
		c-0.4,0.1-0.8,0.2-1.1,0.4c-0.6,0.4-1.1,0.9-1.5,1.5C32.3,21.8,32.2,23.1,32.6,24.4z"/>
	<path fill="#4B6A91" d="M12.1,24.5c0.5-0.1,0.9-0.2,1.4-0.3c0.8-0.2,1.7-0.4,2.5-0.6c0.9-0.2,1.7-0.5,2.5-0.7
		c1.6-0.5,3.3-0.6,5-0.4c1.2,0.2,2.5,0.5,3.6,1.1c0.8,0.4,1.4,1.2,2,1.9c1,1.4,2.3,2.6,3.7,3.5c0.1,0.1,0.3,0,0.4,0.1
		c0.1,0,0.2,0.2,0.3,0.2c-1.4,0-2.4-0.8-3.4-1.6c-0.9-0.7-1.7-1.6-2.6-2.2c-1.6-1-3.2-1.6-5.1-1.8c-0.8-0.1-1.5-0.2-2.3-0.1
		c-0.6,0-1.2,0.2-1.8,0.3c-1.3,0.2-2.5,0.4-3.8,0.6c-0.7,0.1-1.3,0.1-2,0.1C12.3,24.6,12.3,24.5,12.1,24.5z"/>
	<g id="XMLID_26_">
		<g>
			<path fill="#203C69" d="M15.7,15.5c0.5,0.6,0.8,1.2,0.8,2.1c0,0.8-0.6,1.1-0.8,1.7c-0.4,0.9-1.1,1.2-1.9,1.6
				c-0.9,0.4-1.9,0.5-2.9,0.3C10,21,9.3,20.6,8.8,19.8c-0.1-0.2-0.3-0.3-0.5-0.4c0-0.4-0.1-0.7-0.1-1c0-0.7,0-1.4,0.2-2.1
				c0.1-0.4,0.4-0.7,0.6-1c0.5-0.9,1.3-1.4,2.2-1.6c0.9-0.2,1.8-0.2,2.6,0.3c0.1,0.1,0.3,0.1,0.4,0.2c0.6,0.2,1,0.6,1.2,1.1
				C15.6,15.4,15.6,15.4,15.7,15.5z M14.4,18.8c0.8-0.9,0.6-1.8,0-2.5c-0.6-0.7-1.5-1-2.5-0.8c0.6,0.4,1.2,0.8,1.5,1.5
				C13.6,17.6,14,18.2,14.4,18.8z M12.2,20.2c0.6-0.6,1-1.2,0.8-2.3c-0.3-0.4-0.6-0.8-0.9-1.2c-0.5-0.6-1.1-0.6-1.7-0.4
				c-0.3,0.1-0.5,0.6-0.5,0.9c-0.1,0.5-0.1,1.1,0,1.6c0.1,0.4,0.3,0.7,0.6,1c0.3,0.2,0.7,0.4,1.1,0.5C11.7,20.4,12.1,20.4,12.2,20.2
				z"/>
			<path fill="#4B6A91" d="M14.3,16.2c0.7,0.7,0.9,1.6,0,2.5c-0.3-0.6-0.7-1.2-1-1.8c-0.3-0.7-0.9-1.1-1.5-1.5
				C12.8,15.2,13.7,15.5,14.3,16.2z"/>
		</g>
		<g>
		</g>
	</g>
	<path fill="#203C69" d="M29,15.3c0.6,1.7-0.6,3.2-2,3.6c-0.9,0.3-1.7,0.3-2.6,0.3c-1.3,0-2.4-0.4-3.2-1.6c-0.5-0.7-0.9-1.5-0.3-2.4
		c0.3-0.5,0.4-1.1,0.6-1.6c0.3-0.7,0.8-1.1,1.6-1.4c0.9-0.3,1.8-0.3,2.7-0.1c0.9,0.2,1.6,0.6,2.1,1.4C28.3,14.2,28.7,14.7,29,15.3z
		 M21.8,16.6c0.1,0.5,0.4,0.9,1,1.1c0.4,0.2,0.8,0.4,1.2,0.2c0.1-0.1,0.2-0.1,0.4,0c0.5,0.1,0.9,0.1,1.1-0.4c0.1-0.1,0.4,0,0.5-0.1
		c0.1-0.1,0-0.3,0-0.5c0.1-0.3,0.2-0.6,0.2-0.9c-0.2-0.7-0.5-1.5-1.4-1.8c-0.7-0.2-1.4-0.2-2.1,0.1C21.9,14.5,21.5,15.7,21.8,16.6z
		 M27.6,17.3c0.5-0.3,0.5-0.7,0.5-1.2c-0.1-1.6-0.9-2.6-2.4-3.2c-0.5-0.2-1-0.1-1.6,0.1c0.5,0.2,1,0.4,1.5,0.5
		c1.1,0.4,1.9,1.3,2.1,2.5C27.7,16.4,27.6,16.8,27.6,17.3z"/>
	<path fill="#203C69" d="M32.6,24.4c-0.4-1.3-0.3-2.6,0.6-3.8c0.4-0.6,0.9-1.1,1.5-1.5c0.3-0.2,0.7-0.3,1.1-0.4c1-0.3,1.8,0,2.7,0.5
		c0.8,0.4,0.9,1.1,1.1,1.8c0.2,0.6,0.3,1.2,0.5,1.8c0.2,0.8-0.1,1.5-0.5,2.1c-0.4,0.6-1,1-1.5,1.5c-0.5,0.5-1.1,0.3-1.7,0.3
		c-0.1,0-0.3-0.1-0.4-0.1c-0.3,0-0.5,0.2-0.8,0.1c-1-0.4-1.8-0.8-2.3-1.8C32.6,24.7,32.6,24.6,32.6,24.4z M37.3,25
		c0-0.1,0-0.2,0.1-0.4c0-0.2,0.1-0.4,0.1-0.7c0-0.2-0.1-0.4-0.1-0.6c-0.1-1.2-0.6-2.2-1.6-2.9c-0.2-0.1-0.5-0.3-0.7-0.2
		c-0.7,0-1.4,0.7-1.5,1.5c-0.2,1,0,1.9,0.2,2.9c0.1,0.3,0.2,0.7,0.4,0.9c0.6,0.6,1.6,0.5,2.2,0.1C36.7,25.3,37,25.2,37.3,25z
		 M38.7,23c0.4-0.9,0.2-1.7-0.3-2.4c-0.5-0.7-1.3-1.1-2.3-0.9c0.3,0.2,0.6,0.4,0.9,0.6c0.7,0.5,1.2,1.1,1.3,2
		C38.3,22.5,38.2,23,38.7,23z"/>
	<path fill="#4B6A91" d="M27.6,17.3c0-0.5,0.2-0.9,0.1-1.3c-0.2-1.2-0.9-2-2.1-2.5c-0.5-0.2-1-0.3-1.5-0.5c0.5-0.2,1.1-0.3,1.6-0.1
		c1.5,0.5,2.3,1.6,2.4,3.2C28.1,16.5,28,17,27.6,17.3z"/>
	<path fill="#4B6A91" d="M38.7,23c-0.5,0-0.4-0.5-0.4-0.7c-0.1-0.9-0.7-1.5-1.3-2c-0.3-0.2-0.6-0.4-0.9-0.6c1-0.2,1.7,0.2,2.3,0.9
		C38.9,21.3,39.1,22.1,38.7,23z"/>
</g>
</svg>
