<?xml version="1.0" encoding="utf-8"?>
<!-- Generator: Adobe Illustrator 17.1.0, SVG Export Plug-In . SVG Version: 6.00 Build 0)  -->
<!DOCTYPE svg PUBLIC "-//W3C//DTD SVG 1.1//EN" "http://www.w3.org/Graphics/SVG/1.1/DTD/svg11.dtd">
<svg version="1.1" id="Layer_1" xmlns="http://www.w3.org/2000/svg" xmlns:xlink="http://www.w3.org/1999/xlink" x="0px" y="0px"
	 viewBox="0 0 612 792" enable-background="new 0 0 612 792" xml:space="preserve">
<path fill="#C8E4C2" d="M402.2,220.3c-0.4-0.2-0.8-0.4-1.2-0.6c-0.5-0.2-0.9-0.4-1.4-0.6c-27.4-13-58-20.2-90.2-20.2
	c-3.6,0-7.3,0.1-10.9,0.3c-23.1,1.2-45.2,6.1-65.8,14.1c-0.3,0.1-0.5,0.2-0.8,0.3c-0.7,0.3-1.5,0.6-2.2,0.9
	c-0.9,0.4-1.7,0.7-2.6,1.1c-0.1,0.1-0.2,0.1-0.4,0.2C151.1,247.8,98,323,97.9,410.5c0,0.9,0,1.7,0,2.6c0,0.4,0,0.8,0,1.3
	c0.8,42,14,81,36,113.6c4-21.5,12.4-48.1,28.2-65.9c17.3-19.4,49.4-21.3,61-23.7c18.9-4.1,19.3-25.9,18.8-47.2
	c-0.5-23.1-19.7-25.5-26.2-60.6c-6.5-35,3.5-86,38.1-101.5c35.2-15.8,92.1-21.7,126.4,4.9c36.4,28.2,31.9,113.1,15.3,131.6
	c-10.3,11.5-17,58.1,8.6,63.1c13.5,2.6,40.2,14.7,51.4,22.9c23.6,17.3,29.1,47.6,30.8,73.7c21-32.1,33.6-70.1,34.4-111.1
	c0-0.3,0-0.7,0-1c0-0.9,0-1.8,0-2.7C520.6,327,472.3,254.7,402.2,220.3z"/>
</svg>
