<?xml version="1.0" encoding="utf-8"?>
<!-- Generator: Adobe Illustrator 17.1.0, SVG Export Plug-In . SVG Version: 6.00 Build 0)  -->
<!DOCTYPE svg PUBLIC "-//W3C//DTD SVG 1.1//EN" "http://www.w3.org/Graphics/SVG/1.1/DTD/svg11.dtd">
<svg version="1.1" id="Layer_1" xmlns="http://www.w3.org/2000/svg" xmlns:xlink="http://www.w3.org/1999/xlink" x="0px" y="0px"
	 viewBox="0 0 58 59" enable-background="new 0 0 58 59" xml:space="preserve">
<path fill="#6A7476" d="M29.312,5.872c-13.766,0-24.966,11.2-24.966,24.966s11.2,24.966,24.966,24.966s24.966-11.2,24.966-24.966
	S43.078,5.872,29.312,5.872z M46.087,41.757c-0.161-2.472-0.681-5.339-2.922-6.983c-1.056-0.775-3.587-1.924-4.868-2.171
	c-2.427-0.468-1.794-4.889-0.816-5.978c1.571-1.751,1.997-9.798-1.452-12.47c-3.253-2.52-8.644-1.959-11.979-0.466
	c-3.28,1.468-4.227,6.297-3.611,9.616c0.619,3.332,2.431,3.553,2.483,5.744c0.048,2.017,0.011,4.086-1.779,4.47
	c-1.1,0.236-4.143,0.407-5.78,2.25c-1.496,1.684-2.295,4.207-2.671,6.242c-2.154-3.194-3.413-7.039-3.413-11.172
	c0-11.047,8.987-20.034,20.034-20.034c11.047,0,20.035,8.987,20.035,20.034C49.347,34.866,48.141,38.613,46.087,41.757z"/>
</svg>
