<?xml version="1.0" encoding="utf-8"?>
<!-- Generator: Adobe Illustrator 17.1.0, SVG Export Plug-In . SVG Version: 6.00 Build 0)  -->
<!DOCTYPE svg PUBLIC "-//W3C//DTD SVG 1.1//EN" "http://www.w3.org/Graphics/SVG/1.1/DTD/svg11.dtd">
<svg version="1.1" id="Layer_1" xmlns="http://www.w3.org/2000/svg" xmlns:xlink="http://www.w3.org/1999/xlink" x="0px" y="0px"
	 viewBox="0 0 612 792" enable-background="new 0 0 612 792" xml:space="preserve">
<ellipse fill="#C8E4C2" cx="308.5" cy="411.5" rx="236.5" ry="220.5"/>
<path fill="#6A7476" d="M309.292,146.684c-145.255,0-263.434,118.179-263.434,263.434s118.179,263.434,263.434,263.434
	s263.434-118.179,263.434-263.434S454.547,146.684,309.292,146.684z M486.297,525.332c-1.699-26.084-7.186-56.336-30.832-73.683
	c-11.143-8.178-37.849-20.302-51.366-22.908c-25.609-4.938-18.93-51.587-8.61-63.078c16.577-18.476,21.072-103.386-15.321-131.58
	c-34.325-26.59-91.209-20.671-126.399-4.917c-34.61,15.49-44.602,66.444-38.102,101.465c6.532,35.158,25.651,37.49,26.2,60.609
	c0.506,21.283,0.116,43.114-18.771,47.166c-11.607,2.49-43.716,4.295-60.989,23.741c-15.785,17.769-24.216,44.391-28.184,65.864
	c-22.728-33.702-36.013-74.274-36.013-117.884c0-116.565,94.828-211.393,211.393-211.393s211.404,94.828,211.404,211.393
	C520.696,452.621,507.971,492.158,486.297,525.332z"/>
</svg>
