<?xml version="1.0" encoding="utf-8"?>
<!-- Generator: Adobe Illustrator 17.1.0, SVG Export Plug-In . SVG Version: 6.00 Build 0)  -->
<!DOCTYPE svg PUBLIC "-//W3C//DTD SVG 1.1//EN" "http://www.w3.org/Graphics/SVG/1.1/DTD/svg11.dtd">
<svg version="1.1" id="Layer_1" xmlns="http://www.w3.org/2000/svg" xmlns:xlink="http://www.w3.org/1999/xlink" x="0px" y="0px"
	 viewBox="0 0 426.4 133.7" enable-background="new 0 0 426.4 133.7" xml:space="preserve">
<g>
	<path fill="#E9EAEB" d="M25.3,15.4C4.5,26.2-9.3,106,24.7,115.7c48.1,13.8,194.8,4.6,231.5,4.6c40.6,0,105.4-0.4,146.7-3
		c30.6-2,26.3-94.6-1.7-100.4c-43.2-9-112.8-6.3-162.5-6.2C167.1,10.9,46.2,4.6,25.3,15.4z"/>
	<g>
		<path fill="none" stroke="#000000" stroke-width="2.3743" stroke-miterlimit="10" d="M55.1,33.3c-2.6,0.1-5.1,0.6-6,3
			c-0.8,2.3-0.2,6.3,0,8.7c0.3,3.4-0.3,7.6,0,11.2c0.2,3.6,1.2,10.9,1.2,14.5c0,8.2-0.8,10.9,1.1,17.2c2.6,8.3,10.2,7.9,18.9,7.5
			c4.4-0.2,10,0.9,14.3,0c4.7-1,4-4.6,4-8c0-9.2-4.4-17.8-4.3-27.1c0-6.1,0.9-13.5-0.8-19.4c-1.8-6.1-8.4-7.3-15.1-7.6
			C66.3,33.2,56.2,33.3,55.1,33.3z"/>
		<path fill="none" stroke="#000000" stroke-width="2.3743" stroke-miterlimit="10" d="M54.4,92.8c-1.9-2-5.7-4.4-5.8-6.4
			c-0.1-2.3-1-5.6-0.7-7.7c0.3-2.6-0.4-4.1-0.4-6.8c0-2.7-0.2-3.8-0.2-6.5c0-1.3-0.3-12.4-0.3-13.7c0-1.3,0.2-2.8,0-4.1
			c-0.4-3.3-1.1-6.7-1.1-10c0-1.6-0.1-4.3,1.8-5.1c0.5-0.2,7-1.5,8.2-1.6c2.6-0.3,4.7,0.1,7.3,0.1c1.5,0,3,0,4.6,0
			c1.1,0,2.4-0.2,3.4,0.1c1.7,0.5,3.4,2,4.9,2.9c0.3,0.2,0.6,0.4,0.9,0.5"/>
		<path fill="none" stroke="#000000" stroke-width="2.3743" stroke-miterlimit="10" d="M69,85.9c-3.6-0.6-2.8,5.3,0.6,5.2
			C73.1,91.1,71.9,86.5,69,85.9"/>
		<path fill="#76C37C" stroke="#000000" stroke-width="2.3743" stroke-miterlimit="10" d="M167.7,64.9c4.5-0.3,5.5,7.5,7.3,11
			c2.2,4.4,9.3,20,15.2,12.6c6.1-7.5-2.9-21.2-6.3-27.3c-4.4-7.8-6.9-17.2-16.1-18.2c-3.7-0.4-5.7,0.8-7.8,3.8
			c-0.5,0.7-1.5,3.5-2.5,3.7c-2,0.5-1.4-1.6-2-2.9c-1.3-3.1-5-4.4-8.1-4.5c-6.6-0.2-22.5,32.3-23.3,36.1c-0.8,3.7-1.9,9.2,2.3,10.5
			c3.7,1.2,6.4-2,8.5-4.9c2-2.7,7.2-22.8,11.5-20.8c1.8,0.8,3.8,11.6,7.5,13.1C159.1,79.2,165.4,65.1,167.7,64.9z"/>
		<path fill="#76C37C" stroke="#000000" stroke-width="2.3743" stroke-miterlimit="10" d="M253.3,40.8c0.6,6.2,0.8,17.5,0,23.4
			c-0.6,4.9-0.4,9.8-0.7,14.8c-0.2,3.1-0.9,6.5,0.4,9.5c2.9,6.3,15.5,5.7,21,5.4c10-0.5,20.8-3.5,20.9-15.1
			c0.1-9.6-7.3-11.8-15.4-11.8c-4.6,0-9.2,0.2-9.8-5c-0.7-5.8,0.2-11.1-1.4-16.8c-1.1-3.7-2.3-8.8-6.3-10.4
			C258.1,33.1,252.7,36.4,253.3,40.8L253.3,40.8z"/>
		<path fill="#FFFFFF" stroke="#000000" stroke-width="2.3743" stroke-miterlimit="10" d="M272.6,76.4c-5.7,2,0.7,11.6,4.8,6.8
			C279.8,80.4,275.8,74.2,272.6,76.4L272.6,76.4z"/>
		<path fill="#76C37C" stroke="#000000" stroke-width="2.3743" stroke-miterlimit="10" d="M217.1,92.9c44.5-3,36.6-68.2-7.1-50.5
			C189.1,50.8,194.1,96,217.1,92.9L217.1,92.9z"/>
		<path fill="#FFFFFF" stroke="#000000" stroke-width="2.3743" stroke-miterlimit="10" d="M213.8,58.4c-8.2,1-1.2,23.6,9,15
			c4.3-3.6,4.9-7,2.5-11.9c-1.9-4-4.2-5.6-8.5-3.8L213.8,58.4z"/>
		<path fill="none" stroke="#000000" stroke-width="2.3743" stroke-miterlimit="10" d="M60.3,38.1c-1.4,0-6.4-0.7-7.1,0.1
			c-0.8,0.8,0,6,0,7.3c0,4.6,1,8.7,1,13.1c0,4.9,0.3,9.5,0.3,14.4c0,2.2-0.6,5.1,0.9,6.6c1.8,1.8,4.3,1.3,6.6,1
			c2.8-0.3,5.6-0.3,8.4-0.3c2.4,0,4.7,1,6.9,1c7.1,0.1,3.3-10.7,3.1-15c-0.2-3.5-0.9-6.8-1.3-10.2c-0.4-3.3-0.2-6.8-0.2-10.2
			c0-1.9,0.6-5.1-0.9-6.5c-1.8-1.5-5.6-1.2-7.8-1.2c-2.1,0-4.1-0.7-6.1-0.5L60.3,38.1z"/>
	</g>
	
		<path fill="none" stroke="#000000" stroke-width="9.4974" stroke-linecap="round" stroke-linejoin="round" stroke-miterlimit="10" d="
		M322.2,42.8c2.6,9.8,18.4,33.2,28,45.8c8.3-9.3,22.2-23.6,26.7-35.4"/>
</g>
</svg>
