<?xml version="1.0" encoding="utf-8"?>
<!-- Generator: Adobe Illustrator 17.1.0, SVG Export Plug-In . SVG Version: 6.00 Build 0)  -->
<!DOCTYPE svg PUBLIC "-//W3C//DTD SVG 1.1//EN" "http://www.w3.org/Graphics/SVG/1.1/DTD/svg11.dtd">
<svg version="1.1" id="Layer_1" xmlns="http://www.w3.org/2000/svg" xmlns:xlink="http://www.w3.org/1999/xlink" x="0px" y="0px"
	 viewBox="0 0 60 60" enable-background="new 0 0 60 60" xml:space="preserve">
<g>
	<circle fill="#E9EAEA" cx="30" cy="29.9" r="23.2"/>
	<g>
		<path fill="#6A7476" d="M30,4.9c-13.8,0-25,11.2-25,25s11.2,25,25,25c13.8,0,25-11.2,25-25S43.8,4.9,30,4.9z M30,51.3
			c-11.8,0-21.4-9.6-21.4-21.4S18.2,8.4,30,8.4c11.8,0,21.4,9.6,21.4,21.4S41.8,51.3,30,51.3z"/>
		<path fill="#6A7476" d="M39.6,30.4c-1.2-1.8-2.6-4-4.5-5c-1.7-0.9-3.3-1.3-5.2-1.6c-3.2,0-3.5,0.1-5.1,0.6
			c-1.9,0.7-3.6,2.4-4.5,4.1c-0.9,2-1.6,3.8-1.8,6c-0.2,1.6-0.5,3.5-0.2,4.9c7.3,0.7,23.2,0.3,23.2,0.3c0-0.6,0.1-2.9,0-3.5
			C41.3,33.8,40.9,32.5,39.6,30.4z"/>
		<path fill="#6A7476" d="M48.4,25.9c-0.7-0.9-2.8-1.5-3.9-1.4c-0.3,0-1.3,0.7-1.7,0.7c-0.3-0.5-0.5-0.9-0.9-1.4
			c-1.6-1.9-4.2-3.3-5.8-3.6c-3.1-0.5-6.3-0.4-9.5-0.4c-2.5,0-4.8,0.2-7.2,0.8c-2.1,0.6-3.7,1.6-4.8,3.4c-0.2,0.3-0.3,1.1-0.6,1.3
			c-0.1,0.1-0.4,0-0.6,0c-0.4,0-1.1,0.1-1.5,0.4c-1.2,0.7-0.8,2.8-0.2,3.8c1.1,1.9,2.6,2,4.5,2.3c1.2,0.2,2.1-0.1,3-1.7
			c0.4-0.7-0.2-1.7-0.3-2.3c0.5-1,1.1-2.5,2-3.2c1.7-1.3,4.1-1.4,6.1-1.6c2.1-0.2,4.2,0.1,6.2,0.2c1.1,0,4.5,1.2,5.3,1.6
			c0.5,0.3,1.5,0.9,1.7,1.5c0.3,0.6-0.2,0.6-0.5,1.3c-0.5,1.3,0.5,2.4,1.4,3.1c1.4,0.9,2.8,0.8,4.4,0.3c0.9-0.3,2.5-1,3.1-1.8
			C49.1,28.6,48.9,26.5,48.4,25.9z"/>
	</g>
</g>
</svg>
