<?xml version="1.0" encoding="utf-8"?>
<!-- Generator: Adobe Illustrator 17.1.0, SVG Export Plug-In . SVG Version: 6.00 Build 0)  -->
<!DOCTYPE svg PUBLIC "-//W3C//DTD SVG 1.1//EN" "http://www.w3.org/Graphics/SVG/1.1/DTD/svg11.dtd">
<svg version="1.1" id="Layer_1" xmlns="http://www.w3.org/2000/svg" xmlns:xlink="http://www.w3.org/1999/xlink" x="0px" y="0px"
	 viewBox="0 0 60 60" enable-background="new 0 0 60 60" xml:space="preserve">
<g>
	<circle fill="#E9EAEA" cx="30" cy="29.9" r="22.8"/>
	<path fill="#6A7476" d="M30,4.6C16,4.6,4.7,15.9,4.7,29.9S16,55.2,30,55.2s25.3-11.4,25.3-25.3S44,4.6,30,4.6z M16.9,45.4
		c8.6-0.2,17.7,0.4,26.4-0.2c-3.6,3.1-8.2,5-13.3,5C25,50.2,20.5,48.4,16.9,45.4z M46.8,41.3c-0.2-6.8,0.6-15.6-1.1-17.3
		c-2.5-2.6-12.7-9.2-15.5-9c-1.7,0.1-14.1,5.6-15.9,8.6c-1,1.6-0.2,13.7,0.2,19.4c-3-3.5-4.8-8.1-4.8-13.1C9.7,18.7,18.8,9.6,30,9.6
		s20.3,9.1,20.3,20.3C50.3,34.1,49,38,46.8,41.3z"/>
</g>
</svg>
