<?xml version="1.0" encoding="utf-8"?>
<!-- Generator: Adobe Illustrator 17.1.0, SVG Export Plug-In . SVG Version: 6.00 Build 0)  -->
<!DOCTYPE svg PUBLIC "-//W3C//DTD SVG 1.1//EN" "http://www.w3.org/Graphics/SVG/1.1/DTD/svg11.dtd">
<svg version="1.1" id="Layer_1" xmlns="http://www.w3.org/2000/svg" xmlns:xlink="http://www.w3.org/1999/xlink" x="0px" y="0px"
	 viewBox="0 0 60 60" enable-background="new 0 0 60 60" xml:space="preserve">
<g>
	<circle fill="#C8E4C2" cx="28.8" cy="30" r="22.8"/>
	<path fill="#6A7476" d="M28.8,4.7C14.8,4.7,3.5,16.1,3.5,30s11.4,25.3,25.3,25.3S54.1,44,54.1,30S42.7,4.7,28.8,4.7z M45.6,41.4
		c-0.1-2.6-0.6-5.7-2.9-7.5c-1.1-0.8-3.6-1.9-4.9-2.2c-2.4-0.5-1.8-4.9-0.8-6c1.6-1.8,2-9.8-1.5-12.5c-3.3-2.5-8.6-2-12-0.5
		c-3.3,1.5-4.2,6.3-3.6,9.6c0.6,3.3,2.4,3.6,2.5,5.7c0,2,0,4.1-1.8,4.5c-1.1,0.2-4.1,0.4-5.8,2.2c-1.6,1.8-2.4,4.5-2.7,6.6
		C9.8,38.3,8.5,34.3,8.5,30c0-11.2,9.1-20.3,20.3-20.3S49.1,18.8,49.1,30C49.1,34.2,47.8,38.2,45.6,41.4z"/>
</g>
</svg>
