<?xml version="1.0" encoding="utf-8"?>
<!-- Generator: Adobe Illustrator 17.1.0, SVG Export Plug-In . SVG Version: 6.00 Build 0)  -->
<!DOCTYPE svg PUBLIC "-//W3C//DTD SVG 1.1//EN" "http://www.w3.org/Graphics/SVG/1.1/DTD/svg11.dtd">
<svg version="1.1" id="Layer_1" xmlns="http://www.w3.org/2000/svg" xmlns:xlink="http://www.w3.org/1999/xlink" x="0px" y="0px"
	 viewBox="0 0 60 60" enable-background="new 0 0 60 60" xml:space="preserve">
<g>
	<circle fill="#E2DEC3" stroke="#6A7476" stroke-width="5" stroke-miterlimit="10" cx="30" cy="29.9" r="22.8"/>
	<path fill="#6A7476" d="M30,4.6C16,4.6,4.7,15.9,4.7,29.9S16,55.2,30,55.2s25.3-11.4,25.3-25.3S44,4.6,30,4.6z M46.8,41.3
		c-0.1-2.6-0.6-5.7-2.9-7.5c-1.1-0.8-3.6-1.9-4.9-2.2c-2.4-0.5-1.8-4.9-0.8-6c1.6-1.8,2-9.8-1.5-12.5c-3.3-2.5-8.6-2-12-0.5
		c-3.3,1.5-4.2,6.3-3.6,9.6c0.6,3.3,2.4,3.6,2.5,5.7c0,2,0,4.1-1.8,4.5c-1.1,0.2-4.1,0.4-5.8,2.2c-1.6,1.8-2.4,4.5-2.7,6.6
		c-2.3-3.3-3.6-7.3-3.6-11.6C9.7,18.7,18.8,9.6,30,9.6s20.3,9.1,20.3,20.3C50.3,34.1,49,38,46.8,41.3z"/>
</g>
</svg>
