<?xml version="1.0" encoding="utf-8"?>
<!-- Generator: Adobe Illustrator 17.1.0, SVG Export Plug-In . SVG Version: 6.00 Build 0)  -->
<!DOCTYPE svg PUBLIC "-//W3C//DTD SVG 1.1//EN" "http://www.w3.org/Graphics/SVG/1.1/DTD/svg11.dtd">
<svg version="1.1" id="Layer_1" xmlns="http://www.w3.org/2000/svg" xmlns:xlink="http://www.w3.org/1999/xlink" x="0px" y="0px"
	 viewBox="0 0 850 732.1" enable-background="new 0 0 850 732.1" xml:space="preserve">
<path fill="#C8E4C2" d="M810,586.7c-4.1-11.3-8.7-23.2-16.1-32.9c-6.2-8.1-12-14.3-20.1-20.4c-6.2-4.7-13.2-7.6-20.5-10.5
	c-10.6-4.2-22.2-5.4-33.3-7.3c-14.2-2.5-27.6-7.9-40.9-13.3c-0.4-0.1-1.1-0.4-1.8-0.7c-1.2-0.5-2.4-1-3.6-1.6
	c-3.3-1.5-6.6-3-9.9-4.5c-7.1-3.3-14.2-6.8-21.2-10.4c-13.5-6.9-26.7-14.2-39.9-21.8c-13.2-7.6-26.2-15.4-39.2-23.2
	c-2.8-1.7-5.6-3.5-8.3-5.4c-0.2-0.1-0.4-0.3-0.6-0.4c-0.5-0.4-0.9-0.8-1.4-1.2c-0.7-0.6-1.3-1.2-1.9-1.8c0.5-1.5,1.4-3.9,1.8-4.7
	c4.3-9.7,9.1-19.1,13.5-28.8c6.6-14.6,13.6-28.9,20.5-43.3c3.3-6.9,6.6-13.9,9.7-21c0.7-1.5,3.2-7.1,4.6-10.4
	c0.8-1.5,1.6-2.9,2.4-4.4c5.9-10.2,12.8-21.1,14.6-33c1.6-10.7,0.8-19.5-4-29.3c-2.5-5.2-7.1-9.3-11.8-12.4
	c-3.1-2.1-6.1-3.1-9.2-3.8c0.2-0.7,0.4-1.4,0.7-2.1c3.4-10.7,6.8-20.7,7.7-32c1.2-14.5-0.8-29.2-3.2-43.4
	c-4.8-28-15.5-55.5-29.1-80.4c-6.6-12.1-14.4-24-24.7-33.3c-11.1-10.1-23.8-16.9-37.9-21.8c-23.1-8-48.9-7.6-73-5.7
	c-26.2,2-50.8,7.3-74.7,18.4c-22.6,10.5-42.1,28.3-54.6,49.9c-15.3,26.7-17.9,57.4-16,87.5c0.9,14.9,2.7,29.8,3.8,44.7
	c1.1,14.7,0.6,29-0.5,43.7c-0.9,12.6-0.8,25.8,3.4,37.8c4.7,13.8,12.8,26.2,24.6,34.6c-0.5,3.2-0.9,6.4-1.4,9.6
	c-1.1,8.6,3.9,18.8,7.2,26.3c1.3,2.9,2.8,5.6,4.3,8.4c0.7,1.4,1.5,2.8,2.2,4.2c0.4,0.7,1.1,2.3,1.6,3.3c0.3,1.1,0.6,2.1,0.9,3.2
	c0.2,1.3,0.4,2.9,0.4,3.9c0.1,1.9,0,3.8-0.1,5.7c-0.1,0.5-0.2,1.1-0.3,1.6c-0.3,1.4-0.7,2.8-1.2,4.2c-0.2,0.3-0.3,0.6-0.5,0.9
	c-0.8,1.5-1.7,2.9-2.6,4.3c-0.3,0.3-0.5,0.6-0.8,0.9c-1.3,1.4-2.6,2.7-4,4c-0.6,0.5-1.6,1.4-2.4,2.1c-2.7,1.9-5.5,3.6-8.3,5.2
	c-3.2,1.8-6.6,3.5-10,5c-0.6,0.2-1.2,0.5-1.9,0.7c-2.4,0.9-4.8,1.8-7.2,2.6c-16.9,5.8-34.4,9.6-51.8,13.6
	c-25.7,5.8-50.5,14.8-75.2,23.8c-15.4,5.6-30.7,11.3-46.2,16.8c-13.5,4.9-27.6,8.8-39.9,16.3C34.7,534,25,594,18.5,645.2
	C16.7,659.6,32,671.7,45,671.7c1,0,2.1-0.1,3.1-0.2c3.5,4.4,8.4,7.7,13.8,9.2c3,0.8,6.2,1,9.3,0.7c2,3.6,4.3,7.1,7,10.5
	c5.4,6.9,16.5,8.9,24.8,7.1c4.9,7,11.1,13.1,18.6,17.1c12.3,6.6,29.3,3.6,36.3-9.5c3.3-6.2,5.7-12.9,7.2-19.8
	c0.4,0.4,0.8,0.8,1.2,1.1c5.4,4.8,11.4,7.8,18.7,7.8c10.1,0,17.1-5.4,22.9-13.1c2.7-3.7,5.3-7.5,7.7-11.3
	c7.8,12.2,27.1,13.4,38.2,4.8c1.3,2,2.8,4,4.5,5.9c4.6,5.1,12,7.8,18.7,7.8c8.4,0,19.4-4.9,22.9-13.1c2-4.6,3.9-9.2,5.8-13.8
	c4.5,3.1,9.9,4.9,15.3,4.9c1.9,0,3.8-0.2,5.7-0.6c-0.1,1.4-0.1,2.7-0.2,4.1c-0.1,11.8,8.2,22.5,19.5,25.6
	c12.7,3.5,30.3-4.2,32.6-18.5c0.1-0.7,0.2-1.3,0.3-2c4.8,3.4,10.8,5.4,16.2,5.4c1.8,0,3.6-0.2,5.5-0.7c0,1.4,0,2.8,0,4.2
	c0,14.4,12.1,26.5,26.5,26.5c15.5,0,25.1-12.1,26.5-26.5c0-0.1,0-0.1,0-0.2c3.5,1.7,7.4,2.7,11.5,2.7c2.8,0,5.5-0.5,8-1.3
	c3.3,6.9,9.4,12.3,16.9,14.3c13.8,3.8,28.4-4.4,32.5-18.1c2.9-2.2,5.3-5,7.1-8.3c2.2,8.8,9.8,16,18.5,18.4
	c11.5,3.2,23-1.9,29.5-11.5c4.9,5.4,12.4,8.5,19.6,8.5c6.6,0,12.2-2.3,16.6-6.1c0.4,3.6,1,7.1,1.9,10.6
	c2.7,11.4,14.1,19.5,25.6,19.5c7,0,13.8-2.8,18.7-7.8c4.7-4.7,6.4-9.7,7.3-15.7c-0.2,1.8-0.4,3.1,0,0.3c0.2-1.3,0.4-2.6,0.6-3.8
	c0.5-3.1,1.1-6.2,1.6-9.3c1.1-6,2.5-11.9,4-17.8c1.5,6.2,2.8,12.5,4.2,18.7c2.5,11.4,14.2,19.5,25.6,19.5c7.2,0,15.3-3.5,20.5-9.3
	c1.9,11.4,14.8,19.3,25.5,19.3c11.4,0,22.9-8,25.6-19.5c1.1-4.9,1.7-9.9,2-14.8c5.5,9.9,18.9,14.3,29.5,11.4
	c11.4-3.1,19.5-13.8,19.5-25.6C825.5,634.8,818.3,609.5,810,586.7z"/>
</svg>
