<?xml version="1.0" encoding="utf-8"?>
<!-- Generator: Adobe Illustrator 17.1.0, SVG Export Plug-In . SVG Version: 6.00 Build 0)  -->
<!DOCTYPE svg PUBLIC "-//W3C//DTD SVG 1.1//EN" "http://www.w3.org/Graphics/SVG/1.1/DTD/svg11.dtd">
<svg version="1.1" id="Layer_1" xmlns="http://www.w3.org/2000/svg" xmlns:xlink="http://www.w3.org/1999/xlink" x="0px" y="0px"
	 viewBox="0 0 91.667 92.857" enable-background="new 0 0 91.667 92.857" xml:space="preserve">
<g>
	<path fill="#6D6E71" d="M45.261,78.698l-4.413-5.769C29.265,57.789,9.586,28.852,6.092,15.662c-0.849-3.203,1.06-6.488,4.263-7.336
		c3.201-0.849,6.488,1.06,7.336,4.263c2.416,9.119,16.8,31.416,28.359,47.251c9.422-10.408,21.905-24.344,26.183-35.32
		c1.204-3.087,4.683-4.616,7.77-3.412c3.088,1.203,4.615,4.682,3.412,7.769C78.227,42.185,64.37,57.487,54.252,68.66
		c-1.474,1.627-2.872,3.173-4.158,4.615L45.261,78.698z"/>
</g>
</svg>
