<?xml version="1.0" encoding="utf-8"?>
<!-- Generator: Adobe Illustrator 17.1.0, SVG Export Plug-In . SVG Version: 6.00 Build 0)  -->
<!DOCTYPE svg PUBLIC "-//W3C//DTD SVG 1.1//EN" "http://www.w3.org/Graphics/SVG/1.1/DTD/svg11.dtd">
<svg version="1.1" id="Layer_1" xmlns="http://www.w3.org/2000/svg" xmlns:xlink="http://www.w3.org/1999/xlink" x="0px" y="0px"
	 viewBox="0 0 426.4 133.7" enable-background="new 0 0 426.4 133.7" xml:space="preserve">
<g>
	<path fill="#E9EAEB" d="M24.1,19.9C3.6,30.6-10,109.4,23.6,119c47.4,13.6,192.3,4.6,228.5,4.6c61.7,0,188.9,33.7,169.1-65.6
		C407-12.8,300.2,15.2,234.9,15.4C164.1,15.5,44.7,9.3,24.1,19.9z"/>
	<g>
		<path fill="none" stroke="#000000" stroke-width="2.3309" stroke-miterlimit="10" d="M38.3,54.6c0,3.6-0.3,7.1-0.3,10.9
			c0,5-0.3,7.4,4.7,8.9c4.4,1.3,9.5,1.1,14.1,1.3c4.3,0.2,8.5,1.3,13.1,1c-0.1-3.3,1-6.9,1-10.4c0-3.7,0.2-7.6-0.1-11.2
			c-5.2-2.3-11.3-2.4-17-2.4C51.4,52.6,38,50.4,38.3,54.6z"/>
		<path fill="none" stroke="#000000" stroke-width="2.3309" stroke-miterlimit="10" d="M34.3,46.6c-1.4,2.1,0,7.5-0.6,10.2
			c-0.6,2.8-0.8,5-1,7.9c-0.3,4.6-1.6,9-1.3,13.8c2.9,1.6,7.2,0.5,10.4,0.7c5.3,0.4,10.5,2.4,15.8,2.6c5.8,0.3,11.4,0.4,17.2,0.3
			c1.1-2.5,0.9-7.6,1-10.3c0-2.8,0.4-5.4,0.7-8.1c0.5-4.6,0.8-9.1,0.6-13.8c-3.9-1.1-7.6-2.3-11.6-2.7c-4.1-0.4-8.1,0.3-12.2-0.4
			C47.6,45.9,39.9,44.1,34.3,46.6"/>
		<path fill="none" stroke="#000000" stroke-width="2.3309" stroke-miterlimit="10" d="M33.8,85.1c-2,1.2-3.8,3.2-5.8,4.5
			c-1.1,0.7-3.8,2.3-4.3,3.5C22.1,97.3,40,96,43,96.4c7.4,1.1,14.4,1.2,21.8,1.2c4.5,0,9.3,0.4,13.6-0.3c0.2-2.9,0.5-7.7-1.8-9.9
			c-3.2-2.9-11.3-1-15.7-1.7c-4.7-0.7-9.5-0.4-14.3-0.9C44.3,84.5,34.1,84.3,33.8,85.1z"/>
		<path fill="none" stroke="#000000" stroke-width="2.3309" stroke-miterlimit="10" d="M33.1,91.6c8.4,0.4,16.8,1.5,25.3,1.7
			c3.2,0.1,6.4,0,9.6,0"/>
		<path fill="none" stroke="#000000" stroke-width="2.3309" stroke-miterlimit="10" d="M39,88.8c5.6,1.4,12.2,0.6,18,1.1
			c2.8,0.3,5.6,0.3,8.5,0.3"/>
		<path fill="none" stroke="#000000" stroke-width="2.3309" stroke-miterlimit="10" d="M89.1,62.9c0,9.5,0.1,21.2-0.6,30.7
			c-0.1,0.8-1,2.8-0.7,3.5c0.7,1.7,4.7,1.5,6.6,1.6c2.9,0.2,5.8,0.3,8.8,0.3c3.4,0,6.6,0.3,7.4-3.5c1-4.8,0-10.7,0-15.6
			c0-4-1.3-7.5-1.3-11.4c0-3.8-0.2-7.4-0.6-11.1c-0.5-3.8,0.3-5.9-3.9-6.9c-3.2-0.7-6.8-0.5-10.2-0.5c-0.7,0-3.6-0.4-4.2,0
			c-0.9,0.7-0.8,3.2-0.9,4.5C89.3,57.4,89.1,60.1,89.1,62.9"/>
		<path fill="none" stroke="#000000" stroke-width="2.3309" stroke-miterlimit="10" d="M92.9,63.2c3.3,1.6,8.1-0.1,11.5,1.3"/>
		<path fill="none" stroke="#000000" stroke-width="2.3309" stroke-miterlimit="10" d="M93.9,74.1c3,0.7,7.2-0.3,9.9,1"/>
		<path fill="none" stroke="#000000" stroke-width="2.3309" stroke-miterlimit="10" d="M94.5,82.1c0,0.9,0,1.9,0,2.8
			c1.2,0.1,2.5,0.1,3.7,0c0-0.8,0.4-2.7,0-3.4C97.7,80.5,94.9,80.6,94.5,82.1z"/>
		<path fill="none" stroke="#000000" stroke-width="2.3309" stroke-miterlimit="10" d="M103.1,80.8c-2.6,3.8-1.8,4.5,2,4.4
			C105.1,83.4,105.9,80.2,103.1,80.8z"/>
		<path fill="none" stroke="#000000" stroke-width="2.3309" stroke-miterlimit="10" d="M107.4,51.9c-1.5-1.1-3-4.4-4.9-5.9
			c-2.7-0.3-5.5,0.4-8.3-0.1c-2.5-0.5-7.2-2.7-9.7-1.5c-2,1-1.7,3.8-1.9,5.7c-0.4,5.7-0.3,11.3-0.6,17c-0.3,5.3,0,10.7-0.4,16
			c-0.4,5.9,3.5,8.8,6.1,14.1"/>
		<path fill="none" stroke="#000000" stroke-width="2.3309" stroke-miterlimit="10" d="M77.2,49.9c-1.8-0.4-1.5-2-2.3-3.4
			c-0.3-0.6-1.4-2.4-2-2.7c-0.7-0.4-2.9-0.2-3.9-0.4c-2.2-0.3-4.5-0.6-6.7-0.7c-3.4-0.2-6.9-0.1-10.3,0c-2.8,0-5.6-0.7-8.4-0.7
			c-2.4,0-4.7-0.1-7.1-0.4c-1-0.1-3.6-0.6-4.7,0c-1.2,0.6-1.7,3.1-1.9,4.4c-0.3,1.8-0.3,3.7-0.4,5.6c-0.1,2.4-0.5,4.5-1,6.8
			c-0.7,3.2-1.7,6.3-1.8,9.6c0,2.3-0.7,4.2,0.3,6.3c0.9,0.9,3.2,3.9,4,3.6"/>
		<path fill="#D56161" stroke="#000000" stroke-width="2.3309" stroke-miterlimit="10" d="M172.9,65.3c-1.7,3.3-5.2,7.9-7.4,8.1
			c-4.4,0.3-7.6-8.4-9.3-11.8c-2.2-4.3-9.8-18.4-15.6-11.2c-5.9,7.4,5.8,20.6,9.1,26.6c4.3,7.6,6.7,16.8,15.7,17.8
			c3.6,0.4,5.6-0.8,7.6-3.8c0.5-0.7,1.5-3.4,2.4-3.6c1.9-0.4,1.3,1.5,1.9,2.9c1.3,3.1,4.9,4.6,7.9,4.4c3.8-0.2,6.6-3.8,9.6-6.2
			c2.5-2,5.3-3.6,7.1-6.6c1.2-1.9,1.8-4.2,2.6-6.3c1.4-3.5,2.6-6.5,3.4-10.3c0.8-3.6,1.9-9-2.2-10.3c-3.6-1.2-6.2,2-8.3,4.8
			c-2,2.6-7,16.3-11.2,14.4c-1.7-0.8-4.3-10.3-7.3-12.7C177.9,60.5,173.4,64.5,172.9,65.3z"/>
		<path fill="#D56161" stroke="#000000" stroke-width="2.3309" stroke-miterlimit="10" d="M247.2,73c1.9-0.2,7.1-0.3,8.7-1.6
			c3.2-2.6,1.2-7.5-0.6-10c-3.4-4.8-7.1-7.5-12.8-9.2c-9-2.7-22.6-2.4-26.3,7.8c-3.2,8.7-2.9,17,2.8,24.4
			c5.9,7.7,14.2,10.2,23.3,11.5c5.8,0.8,13.2,3.7,17.8-0.4c2.5-2.2,3.5-5.6,1.4-8.6c-3.9-5.8-16.3-4.8-22.4-5.5
			c-2.4-0.3-7-0.7-8.9-2.7c-1.5-1.6-1.8-4.9,0.9-5C231.2,73.7,243.4,73.4,247.2,73z"/>
		<path fill="#D56161" stroke="#000000" stroke-width="2.3309" stroke-miterlimit="10" d="M271.6,46.2c0.5,6,0.8,17.1,0,22.9
			c-0.6,4.8-0.4,9.5-0.7,14.4c-0.2,3.1-0.9,6.3,0.4,9.2c2.8,6.1,15.1,5.5,20.5,5.2c9.8-0.5,20.3-3.4,20.4-14.7
			c0.1-9.3-7.1-11.5-15-11.5c-4.5,0-8.9,0.2-9.5-4.9c-0.7-5.7,0.2-10.8-1.4-16.4c-1-3.6-2.2-8.6-6.1-10.2
			C276.3,38.7,271.1,41.9,271.6,46.2L271.6,46.2z"/>
		<path fill="#FFFFFF" stroke="#000000" stroke-width="2.3309" stroke-miterlimit="10" d="M290.5,81c-5.6,2,0.6,11.3,4.7,6.6
			C297.6,84.9,293.6,78.9,290.5,81L290.5,81z"/>
		<path fill="#FFFFFF" stroke="#000000" stroke-width="2.3309" stroke-miterlimit="10" d="M235,59c-3.4-0.7-4.6,3.6-2.8,6
			c2.2,3.1,6.9,1.2,9.8,0.1c2.4-0.7-1-5.5-3.6-5.8L235,59z"/>
	</g>
	
		<path fill="none" stroke="#000000" stroke-width="9.3238" stroke-linecap="round" stroke-linejoin="round" stroke-miterlimit="10" d="
		M341.1,48.3c2.6,9.6,18,32.6,27.5,45c8.1-9.1,21.8-23.2,26.3-34.7"/>
</g>
</svg>
